<svg width="120" height="120" viewBox="0 0 120 120" fill="none" xmlns="http://www.w3.org/2000/svg">
<g filter="url(#filter0_d)">
<circle cx="55" cy="55" r="50" fill="#42A9F4"/>
</g>
<path d="M29.962 76.2879C30.1379 76.4637 30.3763 76.5625 30.625 76.5625H42.8125C43.0612 76.5625 43.2996 76.4637 43.4755 76.2879L45.625 74.1384V82.1875C45.625 82.4361 45.7238 82.6746 45.8996 82.8504C46.0754 83.0262 46.3139 83.125 46.5625 83.125H63.4375C63.6861 83.125 63.9246 83.0262 64.1004 82.8504C64.2762 82.6746 64.375 82.4361 64.375 82.1875V74.1384L66.5245 76.2879C66.7004 76.4637 66.9388 76.5625 67.1875 76.5625H79.375C79.6237 76.5625 79.8621 76.4637 80.038 76.2879L82.8505 73.4754C83.0262 73.2996 83.125 73.0611 83.125 72.8125V70C83.125 69.7514 83.0262 69.5129 82.8504 69.3371C82.6746 69.1613 82.4361 69.0625 82.1875 69.0625H78.4375C78.4375 68.8139 78.3387 68.5754 78.1629 68.3996C77.9871 68.2238 77.7486 68.125 77.5 68.125H75.625C75.4707 68.125 75.3187 68.1631 75.1826 68.2359C75.0466 68.3088 74.9306 68.4141 74.845 68.5425L73.49 70.575L68.8292 67.4677L66.7041 63.7488C65.615 61.8332 63.8163 60.4228 61.6963 59.8221L59.5679 59.214C60.256 58.2601 60.6259 57.1136 60.625 55.9375V51.25C60.6259 50.234 60.3067 49.2436 59.7126 48.4194C59.1186 47.5952 58.2799 46.9791 57.3157 46.6587L54.8558 45.8388C54.2299 45.6301 53.5633 45.5731 52.9111 45.6726C52.2588 45.7721 51.6395 46.0251 51.1043 46.4109C50.569 46.7967 50.1331 47.3041 49.8324 47.8915C49.5318 48.4788 49.375 49.1291 49.375 49.7889V55.9375C49.3741 57.1136 49.744 58.2601 50.4321 59.214L48.3037 59.8221C46.1837 60.4228 44.385 61.8332 43.2959 63.7488L41.1708 67.4677L36.51 70.575L35.155 68.5425C35.0694 68.4141 34.9534 68.3088 34.8174 68.2359C34.6813 68.1631 34.5293 68.125 34.375 68.125H32.5C32.2514 68.125 32.0129 68.2238 31.8371 68.3996C31.6613 68.5754 31.5625 68.8139 31.5625 69.0625H27.8125C27.5639 69.0625 27.3254 69.1613 27.1496 69.3371C26.9738 69.5129 26.875 69.7514 26.875 70V72.8125C26.875 73.0611 26.9738 73.2996 27.1495 73.4754L29.962 76.2879ZM74.6875 72.1588L76.1267 70H76.5625V72.8125H78.4375V70.9375H81.25V72.4242L78.9867 74.6875H74.6875V72.1588ZM51.25 49.7889C51.25 49.4262 51.3362 49.0687 51.5014 48.7459C51.6667 48.4231 51.9063 48.1441 52.2006 47.932C52.4948 47.72 52.8352 47.5809 53.1938 47.5262C53.5523 47.4715 53.9187 47.5028 54.2628 47.6175L56.7229 48.4375C57.1597 48.5827 57.5566 48.8278 57.8821 49.1533C58.2076 49.4788 58.4527 49.8757 58.598 50.3125H51.25V49.7889ZM51.25 52.1875H58.75V55.9375C58.75 56.9321 58.3549 57.8859 57.6516 58.5891C56.9484 59.2924 55.9946 59.6875 55 59.6875C54.0054 59.6875 53.0516 59.2924 52.3484 58.5891C51.6451 57.8859 51.25 56.9321 51.25 55.9375V52.1875ZM54.8311 65.3125H55.1689L56.7948 73.4419L55 75.2367L53.2052 73.4419L54.8311 65.3125ZM53.904 61.4545C54.6276 61.5985 55.3724 61.5985 56.096 61.4545L55.3028 63.4375H54.6972L53.904 61.4545ZM37.1875 72.3767L42.395 68.905C42.5161 68.8243 42.6168 68.7165 42.689 68.5901L44.9239 64.6791C45.7709 63.1892 47.1699 62.0922 48.8188 61.625L51.6313 60.8214L53.0885 64.4644L51.2682 73.5662C51.2379 73.7175 51.2455 73.874 51.2902 74.0217C51.3349 74.1694 51.4154 74.3038 51.5245 74.4129L54.337 77.2254C54.5129 77.4012 54.7513 77.5 55 77.5C55.2487 77.5 55.4871 77.4012 55.663 77.2254L58.4755 74.4129C58.5846 74.3038 58.6651 74.1694 58.7098 74.0217C58.7545 73.874 58.7621 73.7175 58.7318 73.5662L56.9115 64.4644L58.3687 60.8214L61.1811 61.625C62.83 62.0921 64.2291 63.1891 65.0761 64.6791L67.311 68.5901C67.3832 68.7165 67.4839 68.8243 67.605 68.905L72.8125 72.3767V74.6875H67.5758L64.1005 71.2121C63.9693 71.081 63.8023 70.9917 63.6204 70.9555C63.4386 70.9193 63.2501 70.9379 63.0788 71.0088C62.9074 71.0798 62.761 71.2 62.658 71.3541C62.555 71.5083 62.5 71.6896 62.5 71.875V81.25H47.5V71.875C47.5 71.6896 47.445 71.5083 47.342 71.3541C47.239 71.2 47.0926 71.0798 46.9212 71.0088C46.7499 70.9379 46.5614 70.9193 46.3796 70.9555C46.1977 70.9917 46.0307 71.081 45.8995 71.2121L42.4242 74.6875H37.1875V72.3767ZM28.75 70.9375H31.5625V72.8125H33.4375V70H33.8733L35.3125 72.1588V74.6875H31.0133L28.75 72.4242V70.9375Z" fill="white"/>
<path d="M27.8125 63.4375H30.625V66.25C30.625 66.4986 30.7238 66.7371 30.8996 66.9129C31.0754 67.0887 31.3139 67.1875 31.5625 67.1875H39.0625C39.3111 67.1875 39.5496 67.0887 39.7254 66.9129C39.9012 66.7371 40 66.4986 40 66.25V63.4375H42.8125C43.0611 63.4375 43.2996 63.3387 43.4754 63.1629C43.6512 62.9871 43.75 62.7486 43.75 62.5V58.75C43.7486 57.5072 43.2543 56.3158 42.3755 55.437C41.4967 54.5582 40.3053 54.0639 39.0625 54.0625H31.5625C30.3197 54.0639 29.1283 54.5582 28.2495 55.437C27.3707 56.3158 26.8764 57.5072 26.875 58.75V62.5C26.875 62.7486 26.9738 62.9871 27.1496 63.1629C27.3254 63.3387 27.5639 63.4375 27.8125 63.4375ZM38.125 65.3125H32.5V61.5625C32.5 60.8166 32.7963 60.1012 33.3238 59.5738C33.8512 59.0463 34.5666 58.75 35.3125 58.75C36.0584 58.75 36.7738 59.0463 37.3012 59.5738C37.8287 60.1012 38.125 60.8166 38.125 61.5625V65.3125ZM28.75 58.75C28.7508 58.0043 29.0474 57.2895 29.5747 56.7622C30.102 56.2349 30.8168 55.9383 31.5625 55.9375H39.0625C39.8082 55.9383 40.523 56.2349 41.0503 56.7622C41.5776 57.2895 41.8742 58.0043 41.875 58.75V61.5625H40C40 60.3193 39.5061 59.127 38.6271 58.2479C37.748 57.3689 36.5557 56.875 35.3125 56.875C34.0693 56.875 32.877 57.3689 31.9979 58.2479C31.1189 59.127 30.625 60.3193 30.625 61.5625H28.75V58.75Z" fill="white"/>
<path d="M35.3125 63.4375C35.8303 63.4375 36.25 63.0178 36.25 62.5C36.25 61.9822 35.8303 61.5625 35.3125 61.5625C34.7947 61.5625 34.375 61.9822 34.375 62.5C34.375 63.0178 34.7947 63.4375 35.3125 63.4375Z" fill="white"/>
<path d="M73.75 49.375C73.0043 49.3758 72.2895 49.6724 71.7622 50.1997C71.2349 50.727 70.9383 51.4418 70.9375 52.1875V63.4375C70.9383 64.1832 71.2349 64.898 71.7622 65.4253C72.2895 65.9526 73.0043 66.2492 73.75 66.25H79.375C80.1207 66.2492 80.8355 65.9526 81.3628 65.4253C81.8901 64.898 82.1867 64.1832 82.1875 63.4375V52.1875C82.1867 51.4418 81.8901 50.727 81.3628 50.1997C80.8355 49.6724 80.1207 49.3758 79.375 49.375H73.75ZM80.3125 52.1875V63.4375C80.3122 63.6861 80.2134 63.9243 80.0376 64.1001C79.8618 64.2759 79.6236 64.3747 79.375 64.375H73.75C73.5014 64.3747 73.2632 64.2759 73.0874 64.1001C72.9116 63.9243 72.8128 63.6861 72.8125 63.4375V52.1875C72.8128 51.9389 72.9116 51.7007 73.0874 51.5249C73.2632 51.3491 73.5014 51.2503 73.75 51.25H74.2991L74.962 51.9129C75.1379 52.0887 75.3763 52.1875 75.625 52.1875H77.5C77.7487 52.1875 77.9871 52.0887 78.163 51.9129L78.8259 51.25H79.375C79.6236 51.2503 79.8618 51.3491 80.0376 51.5249C80.2134 51.7007 80.3122 51.9389 80.3125 52.1875Z" fill="white"/>
<path d="M33.4375 52.1875H44.6875C45.4332 52.1867 46.148 51.8901 46.6753 51.3628C47.2026 50.8355 47.4991 50.1207 47.5 49.375V37.0267C47.501 36.6572 47.4287 36.2911 47.2873 35.9498C47.1459 35.6084 46.9382 35.2985 46.6763 35.0379L43.0872 31.4488C42.8266 31.1868 42.5167 30.9791 42.1753 30.8377C41.8339 30.6963 41.4679 30.624 41.0984 30.625H33.4375C32.6918 30.6259 31.977 30.9225 31.4497 31.4497C30.9224 31.977 30.6259 32.6919 30.625 33.4375V49.375C30.6259 50.1207 30.9224 50.8355 31.4497 51.3628C31.977 51.8901 32.6918 52.1867 33.4375 52.1875ZM42.8125 33.8259L44.2991 35.3125H42.8125V33.8259ZM32.5 33.4375C32.5003 33.189 32.5991 32.9507 32.7749 32.7749C32.9507 32.5992 33.1889 32.5003 33.4375 32.5H40.9375V36.25C40.9375 36.4987 41.0363 36.7371 41.2121 36.9129C41.3879 37.0887 41.6264 37.1875 41.875 37.1875H45.625V49.375C45.6247 49.6236 45.5259 49.8619 45.3501 50.0376C45.1743 50.2134 44.9361 50.3122 44.6875 50.3125H33.4375C33.1889 50.3122 32.9507 50.2134 32.7749 50.0376C32.5991 49.8619 32.5003 49.6236 32.5 49.375V33.4375Z" fill="white"/>
<path d="M43.75 46.5625H34.375V48.4375H43.75V46.5625Z" fill="white"/>
<path d="M43.75 42.8125H38.125V44.6875H43.75V42.8125Z" fill="white"/>
<path d="M36.25 42.8125H34.375V44.6875H36.25V42.8125Z" fill="white"/>
<path d="M43.75 39.0625H40.9375V40.9375H43.75V39.0625Z" fill="white"/>
<path d="M39.0625 39.0625H34.375V40.9375H39.0625V39.0625Z" fill="white"/>
<path d="M39.0625 35.3125H34.375V37.1875H39.0625V35.3125Z" fill="white"/>
<path d="M74.8326 29.4149L73.6223 27.3401C73.5501 27.2162 73.4503 27.1105 73.3308 27.0312C73.2112 26.9519 73.0751 26.9011 72.9328 26.8827C72.7905 26.8643 72.6459 26.8788 72.5102 26.9251C72.3744 26.9713 72.251 27.0482 72.1496 27.1496L62.8822 36.417L59.2682 38.224C59.1331 38.2915 59.0163 38.3908 58.9281 38.5135L58.9278 38.5132L58.92 38.524L58.9188 38.5256L56.7109 41.5796C56.6106 41.7184 56.5502 41.8821 56.5363 42.0528C56.5224 42.2236 56.5556 42.3949 56.6322 42.5481L57.9115 45.1068C57.9894 45.2625 58.1091 45.3934 58.2572 45.485C58.4053 45.5765 58.5759 45.625 58.75 45.625H61.9206L65.4115 52.6067C65.4665 52.7169 65.5427 52.8152 65.6357 52.8959C65.7287 52.9766 65.8367 53.0382 65.9535 53.0772C66.0703 53.1161 66.1937 53.1316 66.3165 53.1228C66.4394 53.1141 66.5592 53.0812 66.6693 53.026L68.5443 52.0885C68.7001 52.0106 68.831 51.891 68.9225 51.7429C69.0141 51.5948 69.0625 51.4241 69.0625 51.25V46.5625C69.0625 46.417 69.0287 46.2734 68.9635 46.1432L67.5937 43.4036L79.6326 39.9639C79.77 39.9247 79.8966 39.8546 80.0027 39.7589C80.1088 39.6633 80.1916 39.5447 80.2449 39.4122C80.2982 39.2796 80.3205 39.1367 80.31 38.9942C80.2996 38.8517 80.2568 38.7135 80.1848 38.5901L78.5297 35.7528L78.6665 35.6616C79.4562 35.1354 80.0113 34.3236 80.2149 33.3968C80.4186 32.4699 80.255 31.5002 79.7586 30.6914C79.2622 29.8827 78.4717 29.2978 77.5531 29.0598C76.6344 28.8217 75.6593 28.949 74.8326 29.4149ZM59.3294 43.75L58.5633 42.2177L59.5409 40.8655L60.9831 43.75H59.3294ZM60.9454 39.4817L63.0182 38.4453L64.9922 42.3932L62.9193 43.4297L60.9454 39.4817ZM67.1875 50.6706L66.6693 50.9297L63.7579 45.1067L65.8307 44.0703L67.1875 46.7838V50.6706ZM66.7406 41.6973L64.5783 37.3726L72.6155 29.3354L77.9572 38.4926L66.7406 41.6973ZM78.1692 31.6876C78.4068 32.0824 78.483 32.5537 78.3819 33.0034C78.2808 33.453 78.0102 33.8463 77.6265 34.1015L77.5832 34.1303L75.7775 31.0348C76.1834 30.8142 76.6589 30.7589 77.1045 30.8806C77.5502 31.0022 77.9317 31.2913 78.1692 31.6876Z" fill="white"/>
<defs>
<filter id="filter0_d" x="0" y="0" width="120" height="120" filterUnits="userSpaceOnUse" color-interpolation-filters="sRGB">
<feFlood flood-opacity="0" result="BackgroundImageFix"/>
<feColorMatrix in="SourceAlpha" type="matrix" values="0 0 0 0 0 0 0 0 0 0 0 0 0 0 0 0 0 0 127 0"/>
<feOffset dx="5" dy="5"/>
<feGaussianBlur stdDeviation="5"/>
<feColorMatrix type="matrix" values="0 0 0 0 0.683333 0 0 0 0 0.867 0 0 0 0 1 0 0 0 1 0"/>
<feBlend mode="normal" in2="BackgroundImageFix" result="effect1_dropShadow"/>
<feBlend mode="normal" in="SourceGraphic" in2="effect1_dropShadow" result="shape"/>
</filter>
</defs>
</svg>
