<svg width="120" height="120" viewBox="0 0 120 120" fill="none" xmlns="http://www.w3.org/2000/svg">
<g filter="url(#filter0_d)">
<circle cx="55" cy="55" r="50" fill="#42A9F4"/>
</g>
<path d="M80.1429 53.453C79.9622 52.5114 79.1387 51.8305 78.1799 51.83H76.2489L76.1069 50.979C75.9652 50.1242 75.2918 49.4565 74.4359 49.322C74.2459 49.292 74.0539 49.272 73.8649 49.246C74.1924 47.7172 73.9203 46.121 73.1049 44.787C73.5357 43.6695 73.4553 42.4193 72.8849 41.3662C72.3144 40.313 71.3113 39.5627 70.1399 39.313C69.391 35.305 65.9042 32.3915 61.8269 32.367C61.7269 32.367 61.6379 32.38 61.5429 32.383C60.8914 31.3598 59.8173 30.6808 58.6136 30.5311C57.4099 30.3814 56.2022 30.7766 55.3199 31.609C54.2084 30.8865 52.9115 30.5013 51.5859 30.5C49.4499 30.5087 47.4369 31.5001 46.1279 33.188C44.6744 32.7641 43.1071 33.0244 41.8686 33.8952C40.6301 34.766 39.8549 36.1528 39.7619 37.664C38.2352 38.3057 37.2419 39.7999 37.2409 41.456C37.244 41.7431 37.2775 42.029 37.3409 42.309C35.9908 44.3443 35.638 46.8826 36.3819 49.209C36.1139 49.246 35.8399 49.279 35.5819 49.317C34.7215 49.4468 34.0421 50.1149 33.8979 50.973L33.7559 51.827H31.8199C30.8627 51.8276 30.0402 52.5064 29.8579 53.446L25.4789 75.928C25.3079 76.8085 25.5398 77.7193 26.111 78.4107C26.6823 79.1022 27.533 79.5018 28.4299 79.5H49.2839C50.1119 80.866 52.6279 81.5 54.9999 81.5C57.3469 81.5 59.8389 80.881 60.6909 79.5H81.5699C82.4666 79.5017 83.3171 79.1023 83.8883 78.411C84.4595 77.7198 84.6916 76.8093 84.5209 75.929L80.1429 53.453ZM40.2649 43.266C39.453 42.7778 39.0655 41.8087 39.317 40.8953C39.5685 39.9819 40.3975 39.3477 41.3449 39.344C42.0079 39.342 42.632 39.6572 43.0239 40.192C43.2368 40.4789 43.5866 40.6304 43.9415 40.5894C44.2965 40.5484 44.6026 40.3212 44.7445 39.9934C44.8865 39.6656 44.8428 39.2869 44.6299 39C43.9509 38.0924 42.9218 37.5119 41.7939 37.4C42.092 35.9995 43.327 34.9969 44.7589 34.993C44.8809 34.9992 45.0024 35.0125 45.1229 35.033C45.0424 35.238 44.9724 35.4469 44.9129 35.659C44.7884 36.1883 45.1098 36.7201 45.6363 36.8561C46.1628 36.9921 46.7015 36.6824 46.8489 36.159C46.9626 35.7195 47.1373 35.298 47.3679 34.907C48.2549 33.4209 49.8552 32.5077 51.5859 32.5C52.5278 32.5042 53.4481 32.7821 54.2349 33.3C54.085 33.7211 54.0056 34.164 53.9999 34.611C53.9999 35.1633 54.4476 35.611 54.9999 35.611C55.5522 35.611 55.9999 35.1633 55.9999 34.611C55.9999 33.4493 56.9417 32.5075 58.1034 32.5075C59.2651 32.5075 60.2069 33.4493 60.2069 34.611C60.2069 35.1633 60.6546 35.611 61.2069 35.611C61.7592 35.611 62.2069 35.1633 62.2069 34.611C62.2069 34.534 62.1879 34.461 62.1839 34.384C65.0472 34.5607 67.455 36.596 68.1059 39.39C67.6394 39.5258 67.2011 39.7443 66.8119 40.035C66.5261 40.2493 66.3763 40.5999 66.4191 40.9546C66.4618 41.3093 66.6905 41.6143 67.0191 41.7546C67.3476 41.8949 67.7261 41.8493 68.0119 41.635C68.811 41.0433 69.9149 41.0905 70.6606 41.7482C71.4063 42.4059 71.591 43.4952 71.1039 44.362C70.8862 44.7447 70.5554 45.0507 70.1569 45.238C69.739 45.4403 69.5153 45.9037 69.6169 46.3568C69.7185 46.8099 70.1186 47.1334 70.5829 47.138C70.7295 47.1382 70.8744 47.1058 71.0069 47.043C71.2719 46.9146 71.5224 46.758 71.7539 46.576C72.2708 48.0456 71.9466 49.68 70.9079 50.841L70.8839 50.866C69.5811 52.2773 67.5029 52.6587 65.7839 51.802C65.6155 51.7131 65.4538 51.6121 65.2999 51.5C66.0365 50.4673 66.1382 49.1109 65.5639 47.98C65.4031 47.6608 65.0843 47.4516 64.7274 47.4312C64.3706 47.4108 64.03 47.5824 63.8339 47.8812C63.6379 48.18 63.6161 48.5608 63.7769 48.88C64.1057 49.5409 63.9006 50.343 63.2949 50.765C62.9392 51.0018 62.4997 51.0767 62.0857 50.9711C61.6716 50.8655 61.3217 50.5893 61.1229 50.211C60.963 49.8914 60.6448 49.6814 60.2881 49.6601C59.9314 49.6387 59.5904 49.8093 59.3936 50.1076C59.1968 50.4058 59.174 50.7864 59.3339 51.106C59.9204 52.2899 61.1287 53.0375 62.4499 53.034C62.88 53.0311 63.3058 52.9473 63.7049 52.787C64.0621 53.0997 64.4556 53.3683 64.8769 53.587C66.3021 54.3257 67.9594 54.4789 69.4959 54.014C68.5077 55.3633 67.0287 56.2702 65.3779 56.539C64.8643 56.6226 64.5007 57.0861 64.5417 57.6048C64.5827 58.1235 65.0146 58.5241 65.5349 58.526C65.5881 58.526 65.6413 58.522 65.6939 58.514C66.3028 58.4086 66.8979 58.2348 67.4679 57.996C67.776 58.5406 68.026 59.1161 68.2139 59.713C68.2483 59.8172 68.2659 59.9262 68.2659 60.036C68.2656 60.4682 68.0075 60.8586 67.6099 61.028C67.1499 61.2059 66.6277 61.0655 66.3189 60.681C65.5444 59.7715 64.5303 59.0977 63.3919 58.736C61.2309 58.012 60.3969 57.365 60.0429 56.661C60.5618 56.5962 61.0745 56.4892 61.5759 56.341C61.9174 56.236 62.177 55.9567 62.2568 55.6084C62.3366 55.2601 62.2246 54.8956 61.9628 54.6524C61.7011 54.4091 61.3294 54.324 60.9879 54.429C60.4268 54.6011 59.8476 54.7075 59.2619 54.746C58.1336 54.8342 57 54.6632 55.9479 54.246C55.5529 54.0919 55.1036 54.2037 54.8269 54.525C53.3709 56.1974 50.879 56.4817 49.0838 55.1801C47.2886 53.8785 46.784 51.4218 47.9209 49.518C48.1051 49.2106 48.1112 48.8282 47.9371 48.515C47.7629 48.2018 47.4349 48.0053 47.0766 47.9995C46.7183 47.9937 46.3841 48.1796 46.1999 48.487C45.9613 48.893 45.7694 49.3248 45.6279 49.774C44.8404 49.7326 44.2195 49.0885 44.2069 48.3V48.275C44.2064 48.0111 44.1004 47.7584 43.9126 47.573C43.7248 47.3877 43.4707 47.2851 43.2069 47.288C42.6522 47.2935 42.2058 47.7453 42.2069 48.3C42.2113 50.0735 43.5487 51.5599 45.3119 51.751C45.3155 52.0862 45.3459 52.4206 45.4029 52.751C43.1701 53.2341 40.8543 52.4315 39.3993 50.6704C37.9443 48.9092 37.5931 46.4835 38.4889 44.382C38.7126 44.6083 38.9624 44.8074 39.2329 44.975C39.7053 45.2517 40.3124 45.0971 40.5949 44.6282C40.8774 44.1592 40.7303 43.5503 40.2649 43.262V43.266ZM35.8649 51.299C36.3259 51.231 36.8019 51.171 37.2749 51.109C39.1238 54.0636 42.66 55.4983 46.0449 54.667C46.9544 56.3932 48.6163 57.5969 50.54 57.923C52.4637 58.249 54.4294 57.6601 55.8569 56.33C56.5365 56.5327 57.2364 56.6595 57.9439 56.708C58.4269 58.54 59.8229 59.65 62.7559 60.633C63.5466 60.8809 64.2519 61.3454 64.7919 61.974C65.3922 62.6878 66.2752 63.1027 67.2079 63.109C67.6158 63.1089 68.0195 63.0266 68.3949 62.867C69.5284 62.3825 70.2638 61.2687 70.2639 60.036C70.2648 59.7145 70.2135 59.395 70.1119 59.09C69.887 58.3834 69.5908 57.7016 69.2279 57.055C70.9284 55.8326 72.1129 54.0209 72.5509 51.973C72.7639 51.7199 72.9565 51.4504 73.1269 51.167C73.4619 51.21 73.7969 51.248 74.1339 51.304L77.7439 73.018C70.6874 70.6617 63.0564 70.6617 55.9999 73.018V60.5C55.9999 59.9477 55.5522 59.5 54.9999 59.5C54.4476 59.5 53.9999 59.9477 53.9999 60.5V73.022C46.9442 70.6635 39.3133 70.6607 32.2559 73.014L35.8649 51.299ZM27.6509 77.132C27.4619 76.9037 27.3849 76.603 27.4409 76.312L31.8199 53.83H33.4199L30.2819 72.689C30.1715 73.3754 30.4243 74.0701 30.95 74.5251C31.4756 74.9801 32.1994 75.1306 32.8629 74.923C38.1939 73.1959 43.8733 72.8355 49.3799 73.875L49.0819 77.5H28.4299C28.1282 77.5002 27.8423 77.3652 27.6509 77.132ZM54.9999 79.5C52.5909 79.5 51.2089 78.788 51.0059 78.471L51.3499 74.321C52.4495 74.5948 53.5255 74.9556 54.5679 75.4C54.7027 75.4649 54.8503 75.4991 54.9999 75.5C55.1499 75.4998 55.298 75.4656 55.4329 75.4C56.4746 74.953 57.5504 74.5898 58.6499 74.314L58.9939 78.47C58.7909 78.788 57.4089 79.5 54.9999 79.5ZM82.3489 77.132C82.1575 77.3652 81.8716 77.5002 81.5699 77.5H60.9209L60.6209 73.868C66.1305 72.8306 71.8124 73.1941 77.1449 74.925C77.8083 75.1299 78.5304 74.9772 79.0541 74.5214C79.5778 74.0655 79.8285 73.3713 79.7169 72.686L76.5819 53.831H78.1819L82.5619 76.311C82.6174 76.6027 82.5392 76.904 82.3489 77.132Z" fill="white"/>
<path d="M51.6859 45.185C51.2765 45.5554 51.2448 46.1874 51.6149 46.597C52.4632 47.5336 53.5843 48.18 54.8199 48.445C54.2603 49.2336 53.3528 49.7015 52.3859 49.7C51.8336 49.7 51.3859 50.1477 51.3859 50.7C51.3859 51.2523 51.8336 51.7 52.3859 51.7C54.456 51.7083 56.3135 50.4297 57.0449 48.493C59.5314 48.0809 61.5 46.167 61.9819 43.693C62.0564 43.3391 61.934 42.9727 61.6618 42.7345C61.3897 42.4964 61.0102 42.4238 60.6694 42.5445C60.3285 42.6653 60.0794 42.9607 60.0179 43.317C59.8218 44.3484 59.2267 45.2608 58.3619 45.856C56.6981 46.9765 54.4668 46.7222 53.0979 45.256C52.7275 44.8467 52.0955 44.8149 51.6859 45.185Z" fill="white"/>
<path d="M48.2 44.1C48.7522 44.1 49.2 43.6523 49.2 43.1C49.2 42.4104 49.4739 41.7491 49.9615 41.2615C50.4491 40.7739 51.1104 40.5 51.8 40.5C52.3522 40.5 52.8 40.0523 52.8 39.5C52.8 38.9477 52.3522 38.5 51.8 38.5C49.2606 38.5028 47.2027 40.5606 47.2 43.1C47.2 43.3652 47.3053 43.6196 47.4928 43.8071C47.6804 43.9946 47.9347 44.1 48.2 44.1Z" fill="white"/>
<path d="M55.9999 24.5V23.5C55.9999 22.9477 55.5522 22.5 54.9999 22.5C54.4476 22.5 53.9999 22.9477 53.9999 23.5V24.5C53.9999 25.0523 54.4476 25.5 54.9999 25.5C55.5522 25.5 55.9999 25.0523 55.9999 24.5Z" fill="white"/>
<path d="M71.4098 29.676L70.4098 30.676C70.1498 30.9271 70.0456 31.2989 70.1371 31.6485C70.2286 31.9981 70.5017 32.2712 70.8513 32.3627C71.2009 32.4542 71.5727 32.35 71.8238 32.09L72.8238 31.09C73.0838 30.8389 73.188 30.4671 73.0965 30.1175C73.005 29.7679 72.732 29.4948 72.3823 29.4033C72.0327 29.3118 71.6609 29.4161 71.4098 29.676Z" fill="white"/>
<path d="M38.8829 32.383C39.2873 32.3829 39.6519 32.1393 39.8066 31.7657C39.9613 31.392 39.8758 30.962 39.5899 30.676L38.5899 29.676C38.3388 29.4161 37.967 29.3118 37.6174 29.4033C37.2678 29.4948 36.9947 29.7679 36.9032 30.1175C36.8117 30.4671 36.916 30.8389 37.1759 31.09L38.1759 32.09C38.3634 32.2776 38.6177 32.3829 38.8829 32.383Z" fill="white"/>
<path d="M46.5809 28.175C46.7123 28.1747 46.8424 28.1489 46.9639 28.099C47.209 27.9975 47.4037 27.8027 47.5052 27.5576C47.6067 27.3125 47.6066 27.0371 47.5049 26.792L46.3559 24.02C46.2243 23.6824 45.9203 23.4424 45.5614 23.3927C45.2024 23.343 44.8447 23.4913 44.6263 23.7805C44.4078 24.0696 44.3629 24.4543 44.5089 24.786L45.6569 27.558C45.8118 27.9316 46.1765 28.1751 46.5809 28.175Z" fill="white"/>
<path d="M64.9499 23.479C64.4398 23.268 63.8553 23.5102 63.6439 24.02L62.4949 26.792C62.3929 27.0372 62.3927 27.3128 62.4941 27.5582C62.5956 27.8036 62.7905 27.9985 63.0359 28.1C63.1574 28.1499 63.2875 28.1757 63.4189 28.176C63.8233 28.1761 64.188 27.9326 64.3429 27.559L65.4909 24.787C65.5928 24.5418 65.5931 24.2662 65.4916 24.0208C65.3901 23.7755 65.1952 23.5805 64.9499 23.479Z" fill="white"/>
<path d="M75.3249 40.082C75.4564 40.0818 75.5866 40.0556 75.7079 40.005L78.4789 38.857C78.809 38.7203 79.0412 38.418 79.0879 38.0637C79.1346 37.7095 78.9888 37.3573 78.7054 37.1397C78.422 36.9222 78.044 36.8723 77.7139 37.009L74.9419 38.157C74.4996 38.3387 74.2478 38.8081 74.3411 39.2771C74.4344 39.7461 74.8467 40.0835 75.3249 40.082Z" fill="white"/>
<path d="M34.2919 40.005C34.8022 40.2165 35.3874 39.9743 35.5989 39.464C35.8104 38.9537 35.5682 38.3685 35.0579 38.157L32.2859 37.009C31.7756 36.7978 31.1906 37.0402 30.9794 37.5505C30.7681 38.0608 31.0106 38.6458 31.5209 38.857L34.2919 40.005Z" fill="white"/>
<defs>
<filter id="filter0_d" x="0" y="0" width="120" height="120" filterUnits="userSpaceOnUse" color-interpolation-filters="sRGB">
<feFlood flood-opacity="0" result="BackgroundImageFix"/>
<feColorMatrix in="SourceAlpha" type="matrix" values="0 0 0 0 0 0 0 0 0 0 0 0 0 0 0 0 0 0 127 0"/>
<feOffset dx="5" dy="5"/>
<feGaussianBlur stdDeviation="5"/>
<feColorMatrix type="matrix" values="0 0 0 0 0.683333 0 0 0 0 0.867 0 0 0 0 1 0 0 0 1 0"/>
<feBlend mode="normal" in2="BackgroundImageFix" result="effect1_dropShadow"/>
<feBlend mode="normal" in="SourceGraphic" in2="effect1_dropShadow" result="shape"/>
</filter>
</defs>
</svg>
