<svg width="120" height="120" viewBox="0 0 120 120" fill="none" xmlns="http://www.w3.org/2000/svg">
<g filter="url(#filter0_d)">
<circle cx="55" cy="55" r="50" fill="#42A9F4"/>
</g>
<path d="M28.2089 61.8065C28.405 62.3379 28.7139 62.8163 29.1092 63.2083C29.8101 63.9092 30.7736 64.3443 31.8365 64.3443C32.8962 64.3443 33.8629 63.9092 34.5637 63.2083C35.2646 62.5075 35.6997 61.5408 35.6997 60.4811V58.3319C34.8859 58.4016 34.1717 58.2256 33.6136 57.993C33.5637 58.2354 33.5073 58.4713 33.4342 58.7038C33.1585 59.6007 32.6968 60.4179 31.966 61.0059C31.2252 61.6039 30.242 61.9493 28.9397 61.8828C28.7072 61.8728 28.4646 61.8463 28.2089 61.8065ZM50.9773 56.0498H58.7039V53.6214H52.7545C52.2661 53.6214 51.8209 53.8241 51.4988 54.1463C51.1765 54.4685 50.9773 54.9103 50.9773 55.3987V56.0498ZM58.7038 57.807H50.9772V60.481C50.9772 61.5407 51.4123 62.5074 52.1132 63.2082C52.814 63.9091 53.7807 64.3442 54.8404 64.3442C55.9033 64.3442 56.87 63.9091 57.5677 63.2082C58.2685 62.5074 58.7037 61.5407 58.7037 60.481V57.807H58.7038ZM82.7876 63.6734C83.2593 63.9225 83.6745 64.2614 84.0167 64.6633C84.6312 65.3875 85 66.3209 85 67.334V73.2602C85 73.7452 84.608 74.1371 84.1231 74.1371C83.6382 74.1371 83.2428 73.7451 83.2428 73.2602V67.334C83.2428 66.7494 83.0301 66.2112 82.678 65.796C82.3657 65.4272 81.9439 65.1549 81.4622 65.0254C80.5355 65.703 79.3959 66.1016 78.1669 66.1016C76.8947 66.1016 75.7186 65.6765 74.7719 64.9557C74.5926 64.9756 74.4197 65.0255 74.2537 65.1019C74.0277 65.2081 73.8218 65.371 73.6557 65.5901L68.9352 71.8419C68.7692 72.0612 68.5101 72.1941 68.2345 72.1941H62.1854C61.7369 72.1941 61.3316 72.3734 61.0394 72.6657C60.747 72.9613 60.5643 73.3666 60.5643 73.8118C60.5643 74.2601 60.747 74.6655 61.0394 74.9577C61.3316 75.25 61.7369 75.4328 62.1854 75.4328H69.4103C69.6995 75.4328 69.922 75.4029 70.1978 75.2634C70.7093 75.0075 71.1877 74.2303 71.5364 73.7652L74.6624 69.6296C74.9547 69.241 75.5028 69.1644 75.8914 69.4568C76.2767 69.7491 76.3531 70.3005 76.0608 70.6859L73.0878 74.6255V82.2857H83.2428V77.2397C83.2428 76.7547 83.638 76.3628 84.1231 76.3628C84.6081 76.3628 85 76.7548 85 77.2397V83.1659C85 83.6509 84.608 84.0428 84.1231 84.0428C64.7065 84.0428 45.2935 84.0428 25.8803 84.0428C25.3954 84.0428 25 83.6508 25 83.1659V77.2397C25 76.7547 25.3954 76.3628 25.8803 76.3628C26.3654 76.3628 26.7572 76.7548 26.7572 77.2397V82.2857H36.9156V74.6255L33.9393 70.6859C33.647 70.3005 33.7234 69.7491 34.1121 69.4568C34.4975 69.1644 35.0488 69.2409 35.3412 69.6296L38.3972 73.6756C38.6762 74.0443 38.9554 74.4162 39.2343 74.7884C39.3937 74.9976 39.5897 75.1571 39.8057 75.2634C40.0482 75.3863 40.2741 75.4328 40.5399 75.4328H47.818C48.2632 75.4328 48.6685 75.25 48.964 74.9577C49.2564 74.6655 49.4357 74.2601 49.4357 73.8118C49.4357 73.3666 49.2564 72.9613 48.964 72.6657C48.6685 72.3734 48.2632 72.1941 47.818 72.1941H41.7657C41.4999 72.1941 41.2375 72.0712 41.0649 71.8419L36.3445 65.5901C36.0753 65.2347 35.6733 65.0056 35.2284 64.9557C34.2849 65.6732 33.109 66.1016 31.8367 66.1016C30.6077 66.1016 29.4648 65.7031 28.5381 65.0288C28.0664 65.1517 27.6479 65.4208 27.3355 65.7795C26.9767 66.198 26.7575 66.7395 26.7575 67.3341V73.2603C26.7575 73.7453 26.3655 74.1372 25.8805 74.1372C25.3956 74.1372 25.0002 73.7452 25.0002 73.2603V67.3341C25.0002 66.3076 25.3823 65.361 26.01 64.6335C26.3489 64.2449 26.7575 63.916 27.2159 63.6735C26.5615 62.7334 26.2161 61.6239 26.2161 60.4812V55.3988C26.2161 54.4254 26.6113 53.5418 27.2525 52.9008C27.8937 52.2631 28.7739 51.8644 29.7471 51.8644H33.9227C34.896 51.8644 35.7796 52.263 36.4206 52.9008C37.0619 53.5419 37.4571 54.4255 37.4571 55.3988V60.4812C37.4571 61.6073 37.1216 62.6604 36.5468 63.5406C37.0219 63.7798 37.4237 64.1086 37.746 64.5339L42.2008 70.4335H45.7185V66.8692C45.7185 65.8594 46.2534 64.9458 47.1203 64.1718C47.7914 63.5739 48.675 63.0523 49.6517 62.6405C49.3727 61.9728 49.22 61.2453 49.22 60.4812V56.9301V55.3987C49.22 54.4253 49.6185 53.5417 50.2565 52.9007C50.8976 52.263 51.7812 51.8643 52.7545 51.8643H59.5841C60.0693 51.8643 60.4646 52.2596 60.4646 52.7446V56.9302V60.4812C60.4646 61.202 60.3251 61.8931 60.076 62.5308C61.1256 62.9427 62.0757 63.4742 62.7933 64.092C63.7134 64.8826 64.2815 65.826 64.2815 66.8691V70.4333H67.7992L72.254 64.5338C72.5829 64.1018 72.9947 63.7697 73.4566 63.5439C72.8785 62.6603 72.543 61.6073 72.543 60.4811V55.3987C72.543 54.4253 72.9416 53.5417 73.5795 52.9007C74.2206 52.263 75.1042 51.8643 76.0775 51.8643H80.2532C81.2264 51.8643 82.1102 52.2628 82.7512 52.9007C83.3889 53.5418 83.7876 54.4254 83.7876 55.3987V60.4811C83.7875 61.6237 83.4387 62.7332 82.7876 63.6734ZM81.7911 61.8065C81.5386 61.8463 81.2928 61.8728 81.0603 61.8828C79.7614 61.9492 78.778 61.6037 78.0373 61.0059C77.3031 60.4179 76.8414 59.6008 76.5657 58.7038C76.4958 58.4713 76.4362 58.2354 76.3895 57.993C75.8282 58.2255 75.1173 58.4015 74.3002 58.3319V60.4811C74.3002 61.5408 74.7353 62.5075 75.4362 63.2083C76.137 63.9092 77.1038 64.3443 78.1668 64.3443C79.2264 64.3443 80.1932 63.9092 80.8941 63.2083C81.2862 62.8163 81.595 62.3379 81.7911 61.8065ZM74.3002 56.5712C75.4728 56.7373 76.3298 56.0563 76.4826 55.9234C76.6554 55.7773 76.8181 55.6877 77.054 55.6776C77.539 55.6544 77.9475 56.0264 77.9707 56.5114C78.0007 57.0828 78.0803 57.6609 78.2431 58.1889C78.4225 58.7768 78.7048 59.295 79.1335 59.6405C79.5554 59.9794 80.1501 60.1721 80.9772 60.1321C81.2961 60.1155 81.6448 60.0658 82.0301 59.9793V55.3984C82.0301 54.9101 81.8275 54.4683 81.5052 54.146C81.1831 53.8239 80.7412 53.6212 80.253 53.6212H76.0773C75.589 53.6212 75.1471 53.8239 74.825 54.146C74.5027 54.4683 74.3002 54.9101 74.3002 55.3984V56.5712ZM35.6998 56.5712V55.3985C35.6998 54.9102 35.5006 54.4684 35.1783 54.1462C34.8562 53.824 34.411 53.6213 33.9227 53.6213H29.7469C29.262 53.6213 28.8168 53.824 28.4945 54.1462C28.1724 54.4684 27.973 54.9102 27.973 55.3985V59.9794C28.3551 60.0658 28.7038 60.1156 29.0228 60.1322C29.85 60.1722 30.4446 59.9794 30.8664 59.6406C31.295 59.2953 31.5773 58.7769 31.7601 58.189C31.9229 57.6609 32.0025 57.0829 32.0291 56.5115C32.0523 56.0264 32.4643 55.6545 32.9459 55.6777C33.1718 55.6878 33.3445 55.7707 33.5106 55.9169C33.6337 56.0264 34.504 56.7406 35.6998 56.5712ZM50.592 64.1517C49.675 64.5072 48.8645 64.9589 48.2864 65.4773C47.7849 65.9223 47.4759 66.4007 47.4759 66.8691V70.4333H47.818C48.7483 70.4333 49.5953 70.812 50.2066 71.4232C50.8178 72.0345 51.1964 72.8782 51.1964 73.8118C51.1964 74.3997 51.0436 74.9512 50.7812 75.4328H59.2188C58.9564 74.9512 58.8068 74.3997 58.8068 73.8118C58.8068 72.8782 59.1855 72.0345 59.7968 71.4232C60.4081 70.812 61.2517 70.4333 62.1852 70.4333H62.5241V66.8691C62.5241 66.3841 62.1919 65.8858 61.6538 65.4241C61.0226 64.8826 60.1456 64.4142 59.1689 64.0588C59.056 64.195 58.9364 64.3279 58.8135 64.4508C57.7938 65.4706 56.3886 66.1017 54.8406 66.1017C53.2959 66.1017 51.8875 65.4706 50.871 64.4508C50.7746 64.3543 50.6815 64.2548 50.592 64.1517ZM32.3248 32.4645C31.8398 32.4645 31.4479 32.0692 31.4479 31.5842C31.4479 31.0991 31.8399 30.7073 32.3248 30.7073H48.5954C49.0804 30.7073 49.4724 31.0992 49.4724 31.5842C49.4724 32.0692 49.0803 32.4645 48.5954 32.4645H32.3248ZM32.3248 41.7126C31.8398 41.7126 31.4479 41.3173 31.4479 40.8323C31.4479 40.3472 31.8399 39.9519 32.3248 39.9519H40.4602C40.9452 39.9519 41.3405 40.3472 41.3405 40.8323C41.3405 41.3173 40.9452 41.7126 40.4602 41.7126H32.3248ZM32.3248 37.0886C31.8398 37.0886 31.4479 36.6932 31.4479 36.2083C31.4479 35.7232 31.8399 35.3314 32.3248 35.3314H48.5954C49.0804 35.3314 49.4724 35.7234 49.4724 36.2083C49.4724 36.6932 49.0803 37.0886 48.5954 37.0886H32.3248ZM49.4956 46.4595C49.6185 46.8017 49.8145 47.1072 50.0637 47.3563C50.5089 47.8048 51.1267 48.0838 51.8143 48.0838H56.9798C57.4648 48.0838 57.8567 48.4758 57.8567 48.9641C57.8567 49.4492 57.4647 49.841 56.9798 49.841H51.8143C50.6417 49.841 49.5852 49.3628 48.8212 48.5921C48.2499 48.0175 47.8445 47.28 47.6718 46.4595H35.4175L31.4379 50.4391C31.2786 50.5985 31.0593 50.6982 30.8134 50.6982C30.3284 50.6982 29.9331 50.3062 29.9331 49.8212V46.3865C28.8169 46.2004 27.817 45.6657 27.0497 44.8949C26.083 43.9315 25.4852 42.5994 25.4852 41.1312V31.2853C25.4852 29.8204 26.0832 28.4883 27.0497 27.5217C28.013 26.5584 29.3451 25.9571 30.8134 25.9571H50.1071C51.5752 25.9571 52.9074 26.5584 53.8707 27.5217C54.8373 28.4883 55.4352 29.8204 55.4352 31.2853V32.9131H70.364C71.5299 32.9131 72.5863 33.3882 73.3537 34.1555C74.121 34.9228 74.5961 35.9792 74.5961 37.1452V45.6093C74.5961 46.7753 74.121 47.8316 73.3537 48.599C72.7855 49.1671 72.0549 49.5756 71.241 49.7485V53.2032C71.241 53.4257 71.1579 53.6515 70.9852 53.8244C70.643 54.1664 70.085 54.1664 69.7427 53.8244L65.7598 49.8414H60.9597C60.4746 49.8414 60.0794 49.4494 60.0794 48.9645C60.0794 48.4762 60.4746 48.0842 60.9597 48.0842H66.1252C66.3711 48.0842 66.5902 48.1839 66.7497 48.3466L69.4836 51.0804V48.9644C69.4836 48.476 69.8788 48.0841 70.364 48.0841C71.0416 48.0841 71.6628 47.805 72.1112 47.3566C72.5597 46.9082 72.8387 46.2903 72.8387 45.6093V37.1452C72.8387 36.4642 72.5597 35.8464 72.1112 35.3979C71.6628 34.9494 71.0416 34.6704 70.364 34.6704H55.4351V41.1314C55.4351 42.5997 54.8372 43.9318 53.8705 44.8951C52.9071 45.8617 51.5751 46.4597 50.107 46.4597H49.4956V46.4595ZM35.052 44.7023H50.107C51.0903 44.7023 51.9804 44.3003 52.6282 43.6526C53.2759 43.0048 53.6779 42.1112 53.6779 41.1312V31.2853C53.6779 30.3054 53.2759 29.4119 52.6282 28.7641C51.9805 28.1162 51.0903 27.7143 50.107 27.7143H30.8133C29.83 27.7143 28.9397 28.1162 28.2919 28.7641C27.6442 29.4117 27.2421 30.3053 27.2421 31.2853V41.1313C27.2421 42.1112 27.6442 43.0048 28.2919 43.6527C28.9396 44.3004 29.83 44.7024 30.8133 44.7024C31.2984 44.7024 31.6902 45.0976 31.6902 45.5827V47.6987L34.4308 44.9616C34.6036 44.7886 34.8262 44.7023 35.052 44.7023ZM71.3304 77.1899H38.673V82.2856H71.3305V77.1899H71.3304Z" fill="white"/>
<defs>
<filter id="filter0_d" x="0" y="0" width="120" height="120" filterUnits="userSpaceOnUse" color-interpolation-filters="sRGB">
<feFlood flood-opacity="0" result="BackgroundImageFix"/>
<feColorMatrix in="SourceAlpha" type="matrix" values="0 0 0 0 0 0 0 0 0 0 0 0 0 0 0 0 0 0 127 0"/>
<feOffset dx="5" dy="5"/>
<feGaussianBlur stdDeviation="5"/>
<feColorMatrix type="matrix" values="0 0 0 0 0.683333 0 0 0 0 0.867 0 0 0 0 1 0 0 0 1 0"/>
<feBlend mode="normal" in2="BackgroundImageFix" result="effect1_dropShadow"/>
<feBlend mode="normal" in="SourceGraphic" in2="effect1_dropShadow" result="shape"/>
</filter>
</defs>
</svg>
