<svg width="40" height="40" viewBox="0 0 40 40" fill="none" xmlns="http://www.w3.org/2000/svg">
<circle cx="21" cy="19" r="15" fill="white"/>
<path d="M25.9998 19.9998C25.9998 21.5911 25.3677 23.1172 24.2424 24.2424C23.1172 25.3677 21.5911 25.9998 19.9998 25.9998C18.4085 25.9998 16.8824 25.3677 15.7572 24.2424C14.6319 23.1172 13.9998 21.5911 13.9998 19.9998C13.9998 19.6578 14.0358 19.3238 14.0978 18.9998H11.9998V26.9938C11.9998 27.5498 12.4498 27.9998 13.0058 27.9998H26.9958C27.2623 27.9993 27.5176 27.8931 27.7059 27.7044C27.8941 27.5158 27.9998 27.2603 27.9998 26.9938V18.9998H25.9018C25.9638 19.3238 25.9998 19.6578 25.9998 19.9998ZM19.9998 23.9998C20.5252 23.9997 21.0455 23.8961 21.5308 23.6949C22.0162 23.4937 22.4572 23.1989 22.8286 22.8272C23.2001 22.4556 23.4947 22.0145 23.6956 21.529C23.8966 21.0435 23.9999 20.5232 23.9998 19.9978C23.9997 19.4724 23.8961 18.9521 23.6949 18.4668C23.4937 17.9814 23.1989 17.5404 22.8272 17.169C22.4556 16.7975 22.0145 16.5029 21.529 16.302C21.0435 16.101 20.5232 15.9977 19.9978 15.9978C18.9367 15.9981 17.9191 16.4199 17.169 17.1704C16.4188 17.9209 15.9975 18.9387 15.9978 19.9998C15.9981 21.0609 16.4199 22.0785 17.1704 22.8286C17.9209 23.5788 18.9387 24.0001 19.9998 23.9998ZM24.7998 15.7998H27.1978C27.3571 15.7998 27.5099 15.7367 27.6228 15.6242C27.7356 15.5117 27.7993 15.3591 27.7998 15.1998V12.8018C27.7998 12.6421 27.7364 12.489 27.6235 12.3761C27.5106 12.2632 27.3575 12.1998 27.1978 12.1998H24.7998C24.6401 12.1998 24.487 12.2632 24.3741 12.3761C24.2612 12.489 24.1978 12.6421 24.1978 12.8018V15.1998C24.1998 15.5298 24.4698 15.7998 24.7998 15.7998ZM19.9998 0.799805C14.9076 0.799805 10.0241 2.82266 6.42335 6.42335C2.82266 10.0241 0.799805 14.9076 0.799805 19.9998C0.799805 25.092 2.82266 29.9756 6.42335 33.5763C10.0241 37.177 14.9076 39.1998 19.9998 39.1998C22.5212 39.1998 25.0179 38.7032 27.3473 37.7383C29.6768 36.7734 31.7934 35.3591 33.5763 33.5763C35.3591 31.7934 36.7734 29.6768 37.7383 27.3473C38.7032 25.0179 39.1998 22.5212 39.1998 19.9998C39.1998 17.4784 38.7032 14.9817 37.7383 12.6523C36.7734 10.3228 35.3591 8.20624 33.5763 6.42335C31.7934 4.64047 29.6768 3.22621 27.3473 2.26132C25.0179 1.29643 22.5212 0.799805 19.9998 0.799805ZM29.9998 27.7778C29.9998 28.9998 28.9998 29.9998 27.7778 29.9998H12.2218C10.9998 29.9998 9.9998 28.9998 9.9998 27.7778V12.2218C9.9998 10.9998 10.9998 9.9998 12.2218 9.9998H27.7778C28.9998 9.9998 29.9998 10.9998 29.9998 12.2218V27.7778Z" fill="#42A9F4"/>
</svg>
