<svg width="159" height="132" viewBox="0 0 159 132" fill="none" xmlns="http://www.w3.org/2000/svg">
<path d="M5.016 129.144C4.16 129.144 3.384 128.96 2.688 128.592C2 128.216 1.456 127.7 1.056 127.044C0.664 126.38 0.468 125.632 0.468 124.8C0.468 123.968 0.664 123.224 1.056 122.568C1.456 121.904 2 121.388 2.688 121.02C3.384 120.644 4.164 120.456 5.028 120.456C5.756 120.456 6.412 120.584 6.996 120.84C7.588 121.096 8.084 121.464 8.484 121.944L7.236 123.096C6.668 122.44 5.964 122.112 5.124 122.112C4.604 122.112 4.14 122.228 3.732 122.46C3.324 122.684 3.004 123 2.772 123.408C2.548 123.816 2.436 124.28 2.436 124.8C2.436 125.32 2.548 125.784 2.772 126.192C3.004 126.6 3.324 126.92 3.732 127.152C4.14 127.376 4.604 127.488 5.124 127.488C5.964 127.488 6.668 127.156 7.236 126.492L8.484 127.644C8.084 128.132 7.588 128.504 6.996 128.76C6.404 129.016 5.744 129.144 5.016 129.144ZM16.3488 127.44V129H9.84478V120.6H16.1928V122.16H11.7768V123.984H15.6768V125.496H11.7768V127.44H16.3488ZM24.339 122.184H21.651V129H19.731V122.184H17.055V120.6H24.339V122.184ZM29.6276 123.36C30.6516 123.36 31.4356 123.588 31.9796 124.044C32.5316 124.5 32.8076 125.176 32.8076 126.072C32.8076 127.024 32.5036 127.752 31.8956 128.256C31.2956 128.752 30.4476 129 29.3516 129H25.5596V120.6H27.4916V123.36H29.6276ZM29.2436 127.56C29.7476 127.56 30.1396 127.436 30.4196 127.188C30.7076 126.94 30.8516 126.58 30.8516 126.108C30.8516 125.236 30.3156 124.8 29.2436 124.8H27.4916V127.56H29.2436ZM44.3145 120.6V129H42.3945V126.768H40.6185L39.1305 129H37.0785L38.8305 126.468C38.2625 126.236 37.8265 125.888 37.5225 125.424C37.2185 124.952 37.0665 124.388 37.0665 123.732C37.0665 123.084 37.2145 122.528 37.5105 122.064C37.8065 121.592 38.2265 121.232 38.7705 120.984C39.3145 120.728 39.9545 120.6 40.6905 120.6H44.3145ZM40.7385 122.184C40.1865 122.184 39.7625 122.312 39.4665 122.568C39.1785 122.824 39.0345 123.204 39.0345 123.708C39.0345 124.196 39.1745 124.572 39.4545 124.836C39.7345 125.1 40.1465 125.232 40.6905 125.232H42.3945V122.184H40.7385ZM51.195 124.62C51.683 124.788 52.063 125.052 52.335 125.412C52.615 125.764 52.755 126.176 52.755 126.648C52.755 127.16 52.587 127.604 52.251 127.98C51.915 128.356 51.459 128.644 50.883 128.844C50.315 129.044 49.691 129.144 49.011 129.144C48.435 129.144 47.859 129.072 47.283 128.928C46.715 128.784 46.175 128.564 45.663 128.268L46.263 126.876C46.631 127.1 47.035 127.272 47.475 127.392C47.923 127.504 48.359 127.56 48.783 127.56C49.359 127.56 49.835 127.456 50.211 127.248C50.595 127.04 50.787 126.748 50.787 126.372C50.787 126.06 50.655 125.824 50.391 125.664C50.135 125.504 49.783 125.424 49.335 125.424H47.283V123.96H49.191C49.583 123.96 49.887 123.88 50.103 123.72C50.327 123.56 50.439 123.34 50.439 123.06C50.439 122.732 50.279 122.476 49.959 122.292C49.647 122.108 49.243 122.016 48.747 122.016C48.379 122.016 47.999 122.068 47.607 122.172C47.215 122.268 46.843 122.416 46.491 122.616L45.903 121.104C46.791 120.648 47.751 120.42 48.783 120.42C49.439 120.42 50.043 120.516 50.595 120.708C51.147 120.9 51.587 121.18 51.915 121.548C52.243 121.916 52.407 122.344 52.407 122.832C52.407 123.232 52.299 123.588 52.083 123.9C51.867 124.212 51.571 124.452 51.195 124.62ZM58.362 123.36C59.386 123.36 60.17 123.588 60.714 124.044C61.266 124.5 61.542 125.176 61.542 126.072C61.542 127.024 61.238 127.752 60.63 128.256C60.03 128.752 59.182 129 58.086 129H54.294V120.6H56.226V123.36H58.362ZM57.978 127.56C58.482 127.56 58.874 127.436 59.154 127.188C59.442 126.94 59.586 126.58 59.586 126.108C59.586 125.236 59.05 124.8 57.978 124.8H56.226V127.56H57.978ZM62.61 120.6H64.542V129H62.61V120.6ZM69.8858 125.616H68.5418V129H66.6098V120.6H68.5418V123.996H69.9338L72.1418 120.6H74.1938L71.4458 124.656L74.2778 129H72.0698L69.8858 125.616ZM79.1614 129.144C78.2894 129.144 77.5014 128.956 76.7974 128.58C76.1014 128.204 75.5534 127.688 75.1534 127.032C74.7614 126.368 74.5654 125.624 74.5654 124.8C74.5654 123.976 74.7614 123.236 75.1534 122.58C75.5534 121.916 76.1014 121.396 76.7974 121.02C77.5014 120.644 78.2894 120.456 79.1614 120.456C80.0334 120.456 80.8174 120.644 81.5134 121.02C82.2094 121.396 82.7574 121.916 83.1574 122.58C83.5574 123.236 83.7574 123.976 83.7574 124.8C83.7574 125.624 83.5574 126.368 83.1574 127.032C82.7574 127.688 82.2094 128.204 81.5134 128.58C80.8174 128.956 80.0334 129.144 79.1614 129.144ZM79.1614 127.488C79.6574 127.488 80.1054 127.376 80.5054 127.152C80.9054 126.92 81.2174 126.6 81.4414 126.192C81.6734 125.784 81.7894 125.32 81.7894 124.8C81.7894 124.28 81.6734 123.816 81.4414 123.408C81.2174 123 80.9054 122.684 80.5054 122.46C80.1054 122.228 79.6574 122.112 79.1614 122.112C78.6654 122.112 78.2174 122.228 77.8174 122.46C77.4174 122.684 77.1014 123 76.8694 123.408C76.6454 123.816 76.5334 124.28 76.5334 124.8C76.5334 125.32 76.6454 125.784 76.8694 126.192C77.1014 126.6 77.4174 126.92 77.8174 127.152C78.2174 127.376 78.6654 127.488 79.1614 127.488ZM91.0749 124.62C91.5869 124.772 91.9789 125.02 92.2509 125.364C92.5229 125.708 92.6589 126.132 92.6589 126.636C92.6589 127.38 92.3749 127.96 91.8069 128.376C91.2469 128.792 90.4429 129 89.3949 129H85.2549V120.6H89.1669C90.1429 120.6 90.9029 120.788 91.4469 121.164C91.9909 121.54 92.2629 122.076 92.2629 122.772C92.2629 123.188 92.1589 123.556 91.9509 123.876C91.7429 124.188 91.4509 124.436 91.0749 124.62ZM87.1869 124.08H88.9989C89.4229 124.08 89.7429 123.996 89.9589 123.828C90.1749 123.652 90.2829 123.396 90.2829 123.06C90.2829 122.732 90.1709 122.48 89.9469 122.304C89.7309 122.128 89.4149 122.04 88.9989 122.04H87.1869V124.08ZM89.3229 127.56C90.2349 127.56 90.6909 127.2 90.6909 126.48C90.6909 125.784 90.2349 125.436 89.3229 125.436H87.1869V127.56H89.3229ZM98.2643 123.36C99.2883 123.36 100.072 123.588 100.616 124.044C101.168 124.5 101.444 125.176 101.444 126.072C101.444 127.024 101.14 127.752 100.532 128.256C99.9323 128.752 99.0843 129 97.9883 129H94.1963V120.6H96.1283V123.36H98.2643ZM97.8803 127.56C98.3843 127.56 98.7763 127.436 99.0563 127.188C99.3443 126.94 99.4883 126.58 99.4883 126.108C99.4883 125.236 98.9523 124.8 97.8803 124.8H96.1283V127.56H97.8803ZM102.512 120.6H104.444V129H102.512V120.6ZM108.048 120.6L109.788 123.144L111.528 120.6H113.808L111.012 124.62L114.036 129H111.744L109.788 126.216L107.856 129H105.612L108.612 124.704L105.804 120.6H108.048ZM129.683 120.6V129H118.595V120.6H120.527V127.416H123.179V120.6H125.111V127.416H127.751V120.6H129.683ZM135.019 125.616H133.675V129H131.743V120.6H133.675V123.996H135.067L137.275 120.6H139.327L136.579 124.656L139.411 129H137.203L135.019 125.616ZM144.294 129.144C143.422 129.144 142.634 128.956 141.93 128.58C141.234 128.204 140.686 127.688 140.286 127.032C139.894 126.368 139.698 125.624 139.698 124.8C139.698 123.976 139.894 123.236 140.286 122.58C140.686 121.916 141.234 121.396 141.93 121.02C142.634 120.644 143.422 120.456 144.294 120.456C145.166 120.456 145.95 120.644 146.646 121.02C147.342 121.396 147.89 121.916 148.29 122.58C148.69 123.236 148.89 123.976 148.89 124.8C148.89 125.624 148.69 126.368 148.29 127.032C147.89 127.688 147.342 128.204 146.646 128.58C145.95 128.956 145.166 129.144 144.294 129.144ZM144.294 127.488C144.79 127.488 145.238 127.376 145.638 127.152C146.038 126.92 146.35 126.6 146.574 126.192C146.806 125.784 146.922 125.32 146.922 124.8C146.922 124.28 146.806 123.816 146.574 123.408C146.35 123 146.038 122.684 145.638 122.46C145.238 122.228 144.79 122.112 144.294 122.112C143.798 122.112 143.35 122.228 142.95 122.46C142.55 122.684 142.234 123 142.002 123.408C141.778 123.816 141.666 124.28 141.666 124.8C141.666 125.32 141.778 125.784 142.002 126.192C142.234 126.6 142.55 126.92 142.95 127.152C143.35 127.376 143.798 127.488 144.294 127.488ZM157.641 120.6V129H155.721V122.184H152.841L152.781 123.936C152.741 125.128 152.645 126.096 152.493 126.84C152.341 127.576 152.085 128.144 151.725 128.544C151.373 128.936 150.877 129.132 150.237 129.132C149.973 129.132 149.653 129.088 149.277 129L149.397 127.356C149.501 127.388 149.617 127.404 149.745 127.404C150.209 127.404 150.533 127.132 150.717 126.588C150.901 126.036 151.017 125.176 151.065 124.008L151.185 120.6H157.641Z" fill="#444444"/>
<path fill-rule="evenodd" clip-rule="evenodd" d="M17.3 105.3L14.9 99.6H6.2L3.7 105.3H0L10.5 82.6L21.1 105.3H17.3ZM10.6 89.2C10.5 89.6 10.4 90 10.3 90.5C10.2 90.9 9.99999 91.3 9.79999 91.7L7.6 96.7H13.6L11.4 91.7C11.3 91.4 11.1 91 11 90.7C10.9 90.4 10.8 90 10.7 89.7C10.7 89.6 10.7 89.6 10.6 89.5C10.6 89.4 10.6 89.3 10.6 89.2ZM24.5 105.3V83.4H30.4C30.7 83.4 30.9 83.4 31.2 83.4C31.5 83.4 31.7 83.4 32 83.4C32.6 83.4 33.2 83.5 33.8 83.7C34.4 83.8 34.9 84.1 35.4 84.5C36.1 85 36.6 85.6 36.9 86.3C37.3 87 37.5 87.8 37.5 88.6V88.7V88.8C37.5 89.8 37.2 90.8 36.7 91.7C36.2 92.6 35.4 93.2 34.4 93.6C35.7 93.9 36.6 94.5 37.3 95.5C38 96.5 38.4 97.6 38.4 98.8C38.4 98.9 38.4 98.9 38.4 99C38.4 99.1 38.4 99.1 38.4 99.2C38.4 99.3 38.4 99.3 38.4 99.4C38.4 99.5 38.4 99.5 38.4 99.6C38.3 100.5 38.1 101.3 37.7 102.1C37.3 102.9 36.7 103.6 35.9 104.1C35.4 104.4 34.9 104.7 34.3 104.8C33.7 105 33.1 105.1 32.4 105.1C32.1 105.1 31.7 105.1 31.4 105.2C31.1 105.2 30.8 105.2 30.4 105.2H24.5V105.3ZM28 102.3C28.1 102.3 28.2 102.3 28.4 102.3C28.5 102.3 28.6 102.3 28.8 102.3C28.8 102.3 28.8 102.3 28.9 102.3C28.9 102.3 28.9 102.3 29 102.3C29.1 102.3 29.2 102.3 29.3 102.3C29.4 102.3 29.5 102.3 29.6 102.3C29.8 102.3 29.9 102.3 30.1 102.3C30.3 102.3 30.4 102.3 30.6 102.3C31.7 102.3 32.7 102 33.6 101.6C34.5 101.2 35 100.3 35 98.9V98.8C35 97.4 34.6 96.5 33.7 96.1C32.8 95.7 31.8 95.4 30.7 95.4C30.6 95.4 30.4 95.4 30.3 95.4C30.1 95.4 30 95.4 29.9 95.4H28.3V102.3H28ZM28 86.4V92.7C28.1 92.7 28.2 92.7 28.3 92.7C28.4 92.7 28.5 92.7 28.6 92.7C28.7 92.7 28.8 92.7 28.9 92.7C29 92.7 29.1 92.7 29.3 92.7C29.5 92.7 29.6 92.7 29.8 92.7C30 92.7 30.1 92.7 30.3 92.7C31.2 92.7 32 92.4 32.8 92.1C33.6 91.7 33.9 91 34 90V89.6C34 88.2 33.5 87.4 32.6 87C31.7 86.6 30.7 86.5 29.6 86.4H29.5H29.4H28ZM60.4 88.7C59.4 87.9 58.3 87.2 57.2 86.8C56.1 86.4 54.9 86.1 53.7 86.1C53.4 86.1 53.1 86.1 52.8 86.1C52.5 86.1 52.2 86.2 51.9 86.2C49.9 86.6 48.4 87.5 47.3 89C46.2 90.5 45.7 92.1 45.6 93.9C45.6 94 45.6 94 45.6 94.1C45.6 94.2 45.6 94.2 45.6 94.3C45.6 94.4 45.6 94.4 45.6 94.5C45.6 94.6 45.6 94.6 45.6 94.7C45.7 96.3 46.2 97.8 47.1 99.2C48 100.6 49.4 101.6 51.1 102.1C51.3 102.1 51.5 102.2 51.7 102.2C51.9 102.2 52.1 102.3 52.3 102.3C52.5 102.3 52.7 102.3 52.9 102.4C53.1 102.4 53.3 102.4 53.5 102.4C54.8 102.4 56 102.1 57.2 101.6C58.4 101.1 59.5 100.4 60.5 99.6V103.6C59.8 104.1 59 104.5 58.3 104.7C57.5 105 56.7 105.2 55.9 105.4C55.5 105.4 55.1 105.5 54.8 105.5C54.4 105.5 54.1 105.6 53.7 105.6C50.9 105.6 48.3 104.7 46 102.9C43.7 101.1 42.4 98.6 42.1 95.3C42.1 95.2 42.1 95.1 42.1 95C42.1 94.9 42.1 94.8 42.1 94.7C42.1 94.6 42.1 94.5 42.1 94.5C42.1 94.4 42.1 94.3 42.1 94.2C42.1 91.3 43.1 88.8 45 86.6C46.9 84.4 49.3 83.2 52.3 82.9C52.4 82.9 52.4 82.9 52.5 82.9C52.6 82.9 52.6 82.9 52.7 82.9C52.9 82.9 53.1 82.9 53.3 82.9C53.5 82.9 53.7 82.9 53.8 82.9C55 82.9 56.2 83.1 57.4 83.5C58.5 83.9 59.6 84.4 60.8 85.1L60.4 88.7Z" fill="#444444"/>
<path fill-rule="evenodd" clip-rule="evenodd" d="M34.3999 18.2L54.4999 27.3C51.5999 30.7 49.8999 34.9 49.8999 39.5C49.8999 45.1 52.4999 50.2 56.7999 53.9C61.1999 57.7 67.1999 60.1 73.8999 60.1C76.0999 60.1 78.2999 59.8 80.2999 59.4C82.3999 58.9 84.3999 58.2 86.1999 57.3C87.4999 56.7 88.9999 57.1 89.6999 58.3C90.8999 60.3 91.7999 62.6 92.5999 65C92.5999 60.9 92.1999 57.5 91.7999 54.9C91.6999 54 91.8999 53.2 92.4999 52.6C94.1999 50.8 95.5999 48.7 96.5999 46.4C97.4999 44.3 97.9999 41.9 97.9999 39.5C97.9999 34.9 96.2999 30.7 93.2999 27.3L101 23.8V50.5C100.3 50.9 99.8999 51.6 99.8999 52.5C99.8999 53.8 100.9 54.8 102.2 54.8C103.5 54.8 104.5 53.8 104.5 52.5C104.5 51.7 104 50.9 103.4 50.5V22.7L113.6 18.1L74.0999 0L34.3999 18.2ZM57.9999 25.3C68.8999 20.3 79.3999 19.9 89.4999 25.3V30.5C79.3999 25.7 68.8999 26 57.9999 30.6V25.3ZM91.7999 31.7C93.2999 34 94.0999 36.6 94.0999 39.5C94.0999 41.4 93.6999 43.2 92.9999 44.9C92.1999 46.8 91.0999 48.4 89.6999 49.9C88.7999 50.8 88.2999 51.9 87.9999 53.1C86.7999 53 85.4999 53.2 84.3999 53.8C82.7999 54.6 81.0999 55.2 79.3999 55.6C77.5999 56 75.6999 56.2 73.8999 56.2C68.5999 56.2 63.2999 54.5 59.2999 51C55.8999 48 53.6999 44 53.6999 39.4C53.6999 36.8 54.3999 34.3 55.6999 32.1V25.2C55.6999 24.3 56.1999 23.5 56.9999 23.1C68.1999 17.9 79.4999 17.3 90.4999 23.2C91.2999 23.6 91.6999 24.4 91.6999 25.2V31.7H91.7999Z" fill="#F44244"/>
<path fill-rule="evenodd" clip-rule="evenodd" d="M67 76H145.056C151.657 76 157 81.1142 157 87.4318V112H78.9441C72.3434 112 67 106.886 67 100.568V76ZM95.603 94.9527V91.3426C95.1839 91.1421 94.8696 91.0418 94.4505 90.9415C94.0314 90.8412 93.6123 90.7409 93.298 90.6407C92.9837 90.6407 92.6694 90.5404 92.4598 90.5404C92.1455 90.5404 91.8312 90.5404 91.6217 90.5404C89.5262 90.5404 87.6403 91.2423 85.9639 92.546C84.2875 93.8496 83.5541 95.6546 83.5541 97.961C83.5541 100.368 84.2875 102.273 85.8591 103.577C87.4307 104.98 89.2119 105.582 91.3073 105.582C91.7264 105.582 92.0407 105.582 92.4598 105.482C92.8789 105.482 93.298 105.382 93.7171 105.281C94.0314 105.181 94.3458 105.081 94.6601 104.981C94.9744 104.88 95.2887 104.78 95.603 104.579V100.869C95.0792 101.471 94.4505 101.872 93.8219 102.173C93.1933 102.474 92.4598 102.674 91.7264 102.674C91.7264 102.674 91.6217 102.674 91.5169 102.674C91.4121 102.674 91.4121 102.674 91.3073 102.574C91.3073 102.574 91.3073 102.574 91.2026 102.574H91.0978H90.993H90.8882C89.631 102.373 88.688 101.872 87.9546 100.969C87.326 100.067 87.0116 99.0641 87.0116 97.8607C87.0116 96.3565 87.4307 95.2535 88.3737 94.4513C89.3167 93.649 90.3644 93.2479 91.5169 93.2479C91.7264 93.2479 91.936 93.2479 92.0408 93.2479C92.2503 93.2479 92.4598 93.2479 92.5646 93.3482C93.0885 93.4485 93.6123 93.649 94.1362 93.8496C94.7649 94.2507 95.1839 94.5515 95.603 94.9527ZM99.4796 105.081H102.832V81.9164H99.4796V105.081ZM110.376 90.9415H107.023V97.961C107.023 97.961 107.023 97.961 107.023 98.0613C107.023 98.0613 107.023 98.0613 107.023 98.1616V98.2618C107.023 98.2618 107.023 98.2618 107.023 98.3621C107.023 100.669 107.547 102.474 108.595 103.777C109.643 105.081 111.529 105.682 114.253 105.682C116.977 105.682 118.863 104.98 119.91 103.677C120.958 102.373 121.482 100.468 121.482 97.961V90.9415H118.024V98.8635C118.024 100.167 117.71 101.07 117.186 101.772C116.662 102.373 115.615 102.674 114.253 102.774C112.891 102.774 111.843 102.474 111.319 101.772C110.795 101.07 110.481 100.167 110.481 98.8635V90.9415H110.376ZM128.816 81.9164H125.359V105.081H128.816V103.276C129.445 104.078 130.178 104.68 130.912 104.981C131.645 105.382 132.588 105.582 133.636 105.582H133.845C136.045 105.582 137.722 104.78 138.769 103.276C139.817 101.772 140.341 100.067 140.446 98.1616V98.0613C140.446 95.6546 139.817 93.8496 138.56 92.546C137.303 91.2423 135.941 90.5404 134.474 90.3398C134.369 90.3398 134.159 90.3398 134.055 90.2396C133.95 90.2396 133.74 90.2396 133.636 90.2396C132.588 90.2396 131.645 90.4401 130.702 90.9415C129.759 91.4429 129.13 92.1448 128.711 93.0473V81.9164H128.816ZM133.007 93.2479H132.797C131.435 93.2479 130.388 93.7493 129.759 94.6518C129.13 95.5543 128.711 96.6574 128.711 97.8607V97.961V98.0613C128.711 99.2646 129.13 100.267 129.864 101.27C130.597 102.273 131.645 102.774 132.902 102.774C134.264 102.774 135.312 102.273 135.941 101.37C136.569 100.368 136.884 99.3649 136.884 98.1616C136.884 98.0613 136.884 97.961 136.884 97.8607C136.884 97.7604 136.884 97.6602 136.884 97.5599C136.779 96.4568 136.464 95.5543 135.731 94.6518C135.102 93.7493 134.264 93.3482 133.007 93.2479Z" fill="#F44244"/>
</svg>
